<svg width="64.000000" height="64.000000" viewBox="0 0 64 64" fill="none" xmlns="http://www.w3.org/2000/svg" xmlns:xlink="http://www.w3.org/1999/xlink">
	<desc>
			Created with Pixso.
	</desc>
	<defs>
		<clipPath id="clip12_0">
			<rect width="64.000000" height="64.000000" fill="white" fill-opacity="0"/>
		</clipPath>
	</defs>
	<rect width="64.000000" height="64.000000" fill="#FFFFFF" fill-opacity="0"/>
	<g clip-path="url(#clip12_0)">
		<path d="M50.3333 32L31.6667 32L31.6667 13.3334C31.6667 11.7334 30.6 10.6667 29 10.6667C15.6667 10.6667 5 21.3334 5 34.6667C5 48 15.6667 58.6667 29 58.6667C42.3333 58.6667 53 48 53 34.6667C53 33.0667 51.9333 32 50.3333 32ZM31.6667 53.0667C21.5333 54.6667 11.9333 47.4667 10.6 37.3334C9 27.2 16.2 17.6 26.3333 16.2667L26.3333 34.6667C26.3333 36.2667 27.4 37.3334 29 37.3334L47.4 37.3334C46.3333 45.6 39.9333 52 31.6667 53.0667ZM39.6667 5.33337C38.0667 5.33337 37 6.40004 37 8.00005L37 24C37 25.6 38.0667 26.6667 39.6667 26.6667L55.6667 26.6667C57.2667 26.6667 58.3333 25.6 58.3333 24C58.3333 13.6 50.0667 5.33337 39.6667 5.33337ZM42.3333 21.3334L42.3333 10.9334C47.6667 12 51.6667 16 52.7333 21.3334L42.3333 21.3334Z" fill="#AC3DF0" fill-opacity="1.000000" fill-rule="nonzero"/>
	</g>
</svg>
