<svg width="64.000000" height="64.000000" viewBox="0 0 64 64" fill="none" xmlns="http://www.w3.org/2000/svg" xmlns:xlink="http://www.w3.org/1999/xlink">
	<desc>
			Created with Pixso.
	</desc>
	<defs>
		<clipPath id="clip12_4">
			<rect width="64.000000" height="64.000000" fill="white" fill-opacity="0"/>
		</clipPath>
	</defs>
	<rect width="64.000000" height="64.000000" fill="#FFFFFF" fill-opacity="0"/>
	<g clip-path="url(#clip12_4)">
		<path d="M30.6666 53.3334L14.6666 53.3334C13.9594 53.3334 13.2811 53.0524 12.781 52.5523C12.2809 52.0522 12 51.374 12 50.6667L12 13.3334C12 12.6261 12.2809 11.9479 12.781 11.4478C13.2811 10.9477 13.9594 10.6667 14.6666 10.6667L28 10.6667L28 18.6667C28 20.7884 28.8428 22.8233 30.3431 24.3236C31.8434 25.8239 33.8782 26.6667 36 26.6667L44 26.6667L44 40C44 40.7073 44.2809 41.3856 44.781 41.8857C45.2811 42.3858 45.9594 42.6667 46.6666 42.6667C47.3739 42.6667 48.0521 42.3858 48.5522 41.8857C49.0524 41.3856 49.3333 40.7073 49.3333 40L49.3333 24C49.3333 24 49.3333 24 49.3333 23.84C49.3055 23.5951 49.2518 23.3537 49.1733 23.12L49.1733 22.88C49.045 22.6059 48.874 22.3538 48.6666 22.1334L32.6666 6.13338C32.4462 5.92595 32.1941 5.75493 31.9199 5.62671C31.8318 5.61127 31.7415 5.61127 31.6533 5.62671C31.394 5.48805 31.1154 5.38916 30.8267 5.33337L14.6666 5.33337C12.5449 5.33337 10.51 6.17622 9.00977 7.67651C7.50952 9.17682 6.66663 11.2116 6.66663 13.3334L6.66663 50.6667C6.66663 52.7884 7.50952 54.8233 9.00977 56.3236C10.51 57.8239 12.5449 58.6667 14.6666 58.6667L30.6666 58.6667C31.3739 58.6667 32.0521 58.3858 32.5522 57.8857C33.0524 57.3856 33.3333 56.7073 33.3333 56C33.3333 55.2928 33.0524 54.6145 32.5522 54.1144C32.0521 53.6143 31.3739 53.3334 30.6666 53.3334ZM33.3333 14.4267L40.24 21.3334L36 21.3334C35.2927 21.3334 34.6144 21.0524 34.1144 20.5523C33.6143 20.0522 33.3333 19.3739 33.3333 18.6667L33.3333 14.4267ZM20 37.3334L36 37.3334C36.7072 37.3334 37.3855 37.0524 37.8856 36.5523C38.3856 36.0522 38.6666 35.3739 38.6666 34.6667C38.6666 33.9595 38.3856 33.2812 37.8856 32.7811C37.3855 32.281 36.7072 32 36 32L20 32C19.2927 32 18.6144 32.281 18.1144 32.7811C17.6143 33.2812 17.3333 33.9595 17.3333 34.6667C17.3333 35.3739 17.6143 36.0522 18.1144 36.5523C18.6144 37.0524 19.2927 37.3334 20 37.3334ZM30.6666 42.6667L20 42.6667C19.2927 42.6667 18.6144 42.9477 18.1144 43.4478C17.6143 43.9478 17.3333 44.6261 17.3333 45.3334C17.3333 46.0406 17.6143 46.7189 18.1144 47.219C18.6144 47.7191 19.2927 48 20 48L30.6666 48C31.3739 48 32.0521 47.7191 32.5522 47.219C33.0524 46.7189 33.3333 46.0406 33.3333 45.3334C33.3333 44.6261 33.0524 43.9478 32.5522 43.4478C32.0521 42.9477 31.3739 42.6667 30.6666 42.6667ZM20 26.6667L22.6666 26.6667C23.3739 26.6667 24.0521 26.3858 24.5522 25.8857C25.0524 25.3856 25.3333 24.7073 25.3333 24C25.3333 23.2928 25.0524 22.6145 24.5522 22.1144C24.0521 21.6143 23.3739 21.3334 22.6666 21.3334L20 21.3334C19.2927 21.3334 18.6144 21.6143 18.1144 22.1144C17.6143 22.6145 17.3333 23.2928 17.3333 24C17.3333 24.7073 17.6143 25.3856 18.1144 25.8857C18.6144 26.3858 19.2927 26.6667 20 26.6667ZM56.5599 43.44C56.312 43.1901 56.0171 42.9917 55.6921 42.8563C55.3672 42.7209 55.0187 42.6512 54.6666 42.6512C54.3146 42.6512 53.9661 42.7209 53.6411 42.8563C53.3162 42.9917 53.0212 43.1901 52.7733 43.44L44 52.2401L40.5599 48.7734C40.3113 48.5247 40.0161 48.3275 39.6913 48.1929C39.3665 48.0584 39.0183 47.9891 38.6666 47.9891C38.3149 47.9891 37.9668 48.0584 37.642 48.1929C37.3171 48.3275 37.022 48.5247 36.7733 48.7734C36.5247 49.022 36.3274 49.3172 36.1929 49.642C36.0583 49.9669 35.989 50.3151 35.989 50.6667C35.989 51.0183 36.0583 51.3665 36.1929 51.6914C36.3274 52.0162 36.5247 52.3114 36.7733 52.56L42.1066 57.8934C42.3545 58.1433 42.6494 58.3417 42.9744 58.4771C43.2994 58.6125 43.6479 58.6822 44 58.6822C44.3521 58.6822 44.7006 58.6125 45.0255 58.4771C45.3505 58.3417 45.6454 58.1433 45.8933 57.8934L56.5599 47.2267C56.8099 46.9788 57.0083 46.6839 57.1437 46.3589C57.2791 46.034 57.3488 45.6854 57.3488 45.3334C57.3488 44.9814 57.2791 44.6328 57.1437 44.3078C57.0083 43.9829 56.8099 43.6879 56.5599 43.44Z" fill="#1ECBE1" fill-opacity="1.000000" fill-rule="nonzero"/>
	</g>
</svg>
