<svg width="64.000000" height="64.000000" viewBox="0 0 64 64" fill="none" xmlns="http://www.w3.org/2000/svg" xmlns:xlink="http://www.w3.org/1999/xlink">
	<desc>
			Created with Pixso.
	</desc>
	<defs>
		<clipPath id="clip12_8">
			<rect width="64.000000" height="64.000000" fill="white" fill-opacity="0"/>
		</clipPath>
	</defs>
	<rect width="64.000000" height="64.000000" fill="#FFFFFF" fill-opacity="0"/>
	<g clip-path="url(#clip12_8)">
		<path d="M32 40C34.829 40 37.542 38.8762 39.5425 36.8758C41.5428 34.8754 42.6666 32.1623 42.6666 29.3333L42.6666 13.3333C42.6666 10.5043 41.5428 7.79121 39.5425 5.79082C37.542 3.79044 34.829 2.66663 32 2.66663C29.171 2.66663 26.4579 3.79044 24.4575 5.79082C22.4572 7.79121 21.3333 10.5043 21.3333 13.3333L21.3333 29.3333C21.3333 32.1623 22.4572 34.8754 24.4575 36.8758C26.4579 38.8762 29.171 40 32 40ZM26.6666 13.3333C26.6666 11.9188 27.2285 10.5623 28.2288 9.56206C29.2289 8.56186 30.5854 7.99995 32 7.99995C33.4144 7.99995 34.771 8.56186 35.7712 9.56206C36.7714 10.5623 37.3333 11.9188 37.3333 13.3333L37.3333 29.3333C37.3333 30.7478 36.7714 32.1043 35.7712 33.1045C34.771 34.1047 33.4144 34.6666 32 34.6666C30.5854 34.6666 29.2289 34.1047 28.2288 33.1045C27.2285 32.1043 26.6666 30.7478 26.6666 29.3333L26.6666 13.3333ZM53.3333 29.3333C53.3333 28.626 53.0524 27.9478 52.5522 27.4477C52.0521 26.9476 51.3739 26.6666 50.6666 26.6666C49.9594 26.6666 49.2811 26.9476 48.781 27.4477C48.2809 27.9478 48 28.626 48 29.3333C48 33.5768 46.3142 37.6464 43.3137 40.647C40.3131 43.6476 36.2434 45.3333 32 45.3333C27.7565 45.3333 23.6869 43.6476 20.6863 40.647C17.6857 37.6464 16 33.5768 16 29.3333C16 28.626 15.719 27.9478 15.2189 27.4477C14.7189 26.9476 14.0405 26.6666 13.3333 26.6666C12.6261 26.6666 11.9478 26.9476 11.4476 27.4477C10.9476 27.9478 10.6666 28.626 10.6666 29.3333C10.6714 34.5261 12.5698 39.5388 16.0063 43.4319C19.4429 47.3249 24.1813 49.8309 29.3333 50.4799L29.3333 56L24 56C23.2927 56 22.6144 56.2809 22.1144 56.781C21.6143 57.2811 21.3333 57.9594 21.3333 58.6666C21.3333 59.3739 21.6143 60.0522 22.1144 60.5522C22.6144 61.0523 23.2927 61.3333 24 61.3333L40 61.3333C40.7072 61.3333 41.3855 61.0523 41.8856 60.5522C42.3856 60.0522 42.6666 59.3739 42.6666 58.6666C42.6666 57.9594 42.3856 57.2811 41.8856 56.781C41.3855 56.2809 40.7072 56 40 56L34.6666 56L34.6666 50.4799C39.8187 49.8309 44.5571 47.3249 47.9935 43.4319C51.4301 39.5388 53.3286 34.5261 53.3333 29.3333Z" fill="#00C470" fill-opacity="1.000000" fill-rule="nonzero"/>
	</g>
</svg>
