<svg width="64.000000" height="64.000000" viewBox="0 0 64 64" fill="none" xmlns="http://www.w3.org/2000/svg" xmlns:xlink="http://www.w3.org/1999/xlink">
	<desc>
			Created with Pixso.
	</desc>
	<defs>
		<clipPath id="clip12_6">
			<rect width="64.000000" height="64.000000" fill="white" fill-opacity="0"/>
		</clipPath>
	</defs>
	<rect width="64.000000" height="64.000000" fill="#FFFFFF" fill-opacity="0"/>
	<g clip-path="url(#clip12_6)">
		<path d="M58.6667 45.3333L5.33337 45.3333C4.6261 45.3333 3.94781 45.6142 3.44775 46.1143C2.94763 46.6144 2.66669 47.2927 2.66669 48C2.66669 48.7072 2.94763 49.3855 3.44775 49.8856C3.94781 50.3857 4.6261 50.6666 5.33337 50.6666L58.6667 50.6666C59.3739 50.6666 60.0522 50.3857 60.5523 49.8856C61.0524 49.3855 61.3334 48.7072 61.3334 48C61.3334 47.2927 61.0524 46.6144 60.5523 46.1143C60.0522 45.6142 59.3739 45.3333 58.6667 45.3333ZM58.6667 56L5.33337 56C4.6261 56 3.94781 56.2809 3.44775 56.781C2.94763 57.2811 2.66669 57.9594 2.66669 58.6666C2.66669 59.3739 2.94763 60.0522 3.44775 60.5522C3.94781 61.0523 4.6261 61.3333 5.33337 61.3333L58.6667 61.3333C59.3739 61.3333 60.0522 61.0523 60.5523 60.5522C61.0524 60.0522 61.3334 59.3739 61.3334 58.6666C61.3334 57.9594 61.0524 57.2811 60.5523 56.781C60.0522 56.2809 59.3739 56 58.6667 56ZM16 18.6666C15.4726 18.6666 14.957 18.823 14.5185 19.116C14.08 19.4091 13.7382 19.8255 13.5363 20.3128C13.3345 20.8001 13.2817 21.3362 13.3846 21.8535C13.4875 22.3708 13.7415 22.846 14.1144 23.2189C14.4874 23.5918 14.9625 23.8458 15.4798 23.9487C15.9971 24.0516 16.5333 23.9988 17.0205 23.797C17.5078 23.5951 17.9243 23.2533 18.2173 22.8148C18.5103 22.3763 18.6667 21.8607 18.6667 21.3333C18.6667 20.6261 18.3857 19.9478 17.8856 19.4477C17.3856 18.9476 16.7073 18.6666 16 18.6666ZM53.3334 2.66663L10.6667 2.66663C8.54498 2.66663 6.51013 3.50948 5.00983 5.00977C3.50952 6.51006 2.66669 8.54489 2.66669 10.6666L2.66669 32C2.66669 34.1217 3.50952 36.1565 5.00983 37.6568C6.51013 39.1571 8.54498 40 10.6667 40L53.3334 40C55.4551 40 57.4899 39.1571 58.9902 37.6568C60.4905 36.1565 61.3334 34.1217 61.3334 32L61.3334 10.6666C61.3334 8.54489 60.4905 6.51006 58.9902 5.00977C57.4899 3.50948 55.4551 2.66663 53.3334 2.66663ZM56 32C56 32.7072 55.7191 33.3855 55.219 33.8856C54.7189 34.3857 54.0406 34.6666 53.3334 34.6666L10.6667 34.6666C9.95947 34.6666 9.28119 34.3857 8.78107 33.8856C8.28094 33.3855 8 32.7072 8 32L8 10.6666C8 9.95938 8.28094 9.2811 8.78107 8.78101C9.28119 8.28091 9.95947 7.99995 10.6667 7.99995L53.3334 7.99995C54.0406 7.99995 54.7189 8.28091 55.219 8.78101C55.7191 9.2811 56 9.95938 56 10.6666L56 32ZM32 13.3333C30.4178 13.3333 28.871 13.8025 27.5555 14.6815C26.2399 15.5606 25.2145 16.81 24.609 18.2718C24.0035 19.7336 23.845 21.3422 24.1537 22.894C24.4624 24.4459 25.2244 25.8713 26.3431 26.9901C27.462 28.109 28.8875 28.8709 30.4393 29.1796C31.9911 29.4883 33.5997 29.3298 35.0615 28.7243C36.5233 28.1188 37.7727 27.0934 38.6518 25.7778C39.5308 24.4623 40 22.9155 40 21.3333C40 19.2116 39.1572 17.1767 37.6569 15.6764C36.1566 14.1761 34.1218 13.3333 32 13.3333ZM32 24C31.4726 24 30.957 23.8436 30.5185 23.5505C30.08 23.2575 29.7382 22.841 29.5363 22.3538C29.3345 21.8665 29.2817 21.3303 29.3846 20.813C29.4875 20.2958 29.7415 19.8206 30.1144 19.4477C30.4874 19.0747 30.9625 18.8208 31.4798 18.7179C31.9971 18.615 32.5333 18.6678 33.0205 18.8696C33.5078 19.0714 33.9243 19.4132 34.2173 19.8518C34.5103 20.2903 34.6667 20.8059 34.6667 21.3333C34.6667 22.0405 34.3857 22.7188 33.8856 23.2189C33.3856 23.719 32.7073 24 32 24ZM48 18.6666C47.4726 18.6666 46.957 18.823 46.5185 19.116C46.08 19.4091 45.7382 19.8255 45.5363 20.3128C45.3345 20.8001 45.2817 21.3362 45.3846 21.8535C45.4875 22.3708 45.7415 22.846 46.1144 23.2189C46.4874 23.5918 46.9625 23.8458 47.4798 23.9487C47.9971 24.0516 48.5333 23.9988 49.0205 23.797C49.5078 23.5951 49.9243 23.2533 50.2173 22.8148C50.5103 22.3763 50.6667 21.8607 50.6667 21.3333C50.6667 20.6261 50.3857 19.9478 49.8856 19.4477C49.3856 18.9476 48.7073 18.6666 48 18.6666Z" fill="#10ABED" fill-opacity="0.910000" fill-rule="nonzero"/>
	</g>
</svg>
