<svg width="24.000000" height="24.000000" viewBox="0 0 24 24" fill="none" xmlns="http://www.w3.org/2000/svg" xmlns:xlink="http://www.w3.org/1999/xlink">
	<desc>
			Created with Pixso.
	</desc>
	<defs>
		<clipPath id="clip2_184">
			<rect width="24.000000" height="24.000000" fill="white" fill-opacity="0"/>
		</clipPath>
	</defs>
	<rect width="24.000000" height="24.000000" fill="#FFFFFF" fill-opacity="0"/>
	<g clip-path="url(#clip2_184)">
		<path d="M17.34 5.45996C17.1027 5.45996 16.8707 5.53027 16.6733 5.66235C16.476 5.79419 16.3221 5.98145 16.2313 6.20068C16.1405 6.42017 16.1168 6.66138 16.1631 6.89404C16.2094 7.12695 16.3237 7.34082 16.4915 7.50854C16.6593 7.67627 16.8731 7.79053 17.1059 7.83691C17.3387 7.8833 17.58 7.85938 17.7992 7.76855C18.0185 7.67773 18.2059 7.52393 18.3378 7.32666C18.4696 7.12939 18.54 6.89722 18.54 6.65991C18.54 6.3418 18.4136 6.03662 18.1885 5.81152C17.9635 5.58643 17.6583 5.45996 17.34 5.45996ZM21.94 7.87988C21.9205 7.05029 21.7651 6.22949 21.48 5.44995C21.2257 4.7832 20.83 4.1792 20.32 3.67993C19.8248 3.16748 19.2195 2.77417 18.55 2.53003C17.7726 2.23608 16.9509 2.07715 16.12 2.06006C15.06 2 14.72 2 12 2C9.28003 2 8.94 2 7.88 2.06006C7.04913 2.07715 6.22736 2.23608 5.45001 2.53003C4.78168 2.77661 4.17694 3.16968 3.67999 3.67993C3.16742 4.17529 2.77417 4.78052 2.53003 5.44995C2.23615 6.22729 2.07721 7.04907 2.06 7.87988C2 8.93994 2 9.28003 2 12C2 14.72 2 15.0601 2.06 16.1201C2.07721 16.9509 2.23615 17.7727 2.53003 18.55C2.77417 19.2195 3.16742 19.8247 3.67999 20.3201C4.17694 20.8303 4.78168 21.2234 5.45001 21.47C6.22736 21.7639 7.04913 21.9229 7.88 21.9399C8.94 22 9.28003 22 12 22C14.72 22 15.06 22 16.12 21.9399C16.9509 21.9229 17.7726 21.7639 18.55 21.47C19.2195 21.2258 19.8248 20.8325 20.32 20.3201C20.8322 19.8225 21.2283 19.2183 21.48 18.55C21.7651 17.7705 21.9205 16.9497 21.94 16.1201C21.94 15.0601 22 14.72 22 12C22 9.28003 22 8.93994 21.94 7.87988ZM20.14 16C20.1327 16.6348 20.0178 17.2637 19.8 17.8601C19.6403 18.2952 19.3839 18.6885 19.05 19.01C18.7256 19.3406 18.3333 19.5964 17.9 19.76C17.3037 19.9778 16.6747 20.0928 16.04 20.1001C15.04 20.1499 14.67 20.1599 12.04 20.1599C9.40997 20.1599 9.03998 20.1599 8.03998 20.1001C7.38092 20.1123 6.72461 20.0107 6.09998 19.8C5.68579 19.6282 5.31134 19.3728 5 19.05C4.66809 18.7288 4.41486 18.3352 4.26001 17.8999C4.01587 17.2952 3.88043 16.6519 3.85999 16C3.85999 15 3.79999 14.6299 3.79999 12C3.79999 9.37012 3.79999 9 3.85999 8C3.8645 7.35107 3.98297 6.70801 4.21002 6.1001C4.38605 5.67798 4.65625 5.30176 5 5C5.30383 4.65625 5.67926 4.38306 6.09998 4.19995C6.70953 3.97998 7.35199 3.86499 8 3.86011C9 3.86011 9.37 3.80005 12 3.80005C14.63 3.80005 15 3.80005 16 3.86011C16.6348 3.86719 17.2637 3.98218 17.86 4.19995C18.3145 4.36865 18.7223 4.64282 19.05 5C19.3777 5.30713 19.6338 5.68262 19.8 6.1001C20.0223 6.70898 20.1373 7.35181 20.14 8C20.19 9 20.2 9.37012 20.2 12C20.2 14.6299 20.19 15 20.14 16ZM12 6.87012C10.9858 6.87207 9.99493 7.17456 9.15265 7.7395C8.31036 8.3042 7.65436 9.1062 7.26764 10.0437C6.88086 10.9812 6.7807 12.0125 6.9798 13.0068C7.17889 14.0015 7.66821 14.9146 8.38605 15.6309C9.10394 16.3474 10.018 16.835 11.0129 17.0322C12.0077 17.2292 13.0387 17.1272 13.9755 16.7385C14.9123 16.3499 15.7129 15.6924 16.2761 14.8491C16.8394 14.0056 17.14 13.0142 17.14 12C17.1413 11.3252 17.0092 10.6565 16.7512 10.033C16.4933 9.40942 16.1146 8.84277 15.6368 8.36597C15.1592 7.8894 14.5919 7.51172 13.9678 7.25488C13.3436 6.99829 12.6749 6.86743 12 6.87012ZM12 15.3301C11.3414 15.3301 10.6976 15.1348 10.15 14.7688C9.60236 14.4028 9.17554 13.8828 8.92346 13.2744C8.67145 12.6658 8.60547 11.9963 8.73401 11.3503C8.86249 10.7043 9.17963 10.1111 9.64532 9.64526C10.111 9.17969 10.7044 8.86255 11.3503 8.73389C11.9963 8.60547 12.6658 8.67139 13.2744 8.92358C13.8828 9.17554 14.4029 9.60229 14.7688 10.1499C15.1347 10.6975 15.33 11.3413 15.33 12C15.33 12.4373 15.2439 12.8704 15.0765 13.2744C14.9092 13.6785 14.6639 14.0454 14.3547 14.3547C14.0455 14.6638 13.6783 14.9092 13.2744 15.0764C12.8703 15.2439 12.4373 15.3301 12 15.3301Z" fill="#FFFFFF" fill-opacity="1.000000" fill-rule="nonzero"/>
	</g>
</svg>
