<svg width="24.000000" height="24.000000" viewBox="0 0 24 24" fill="none" xmlns="http://www.w3.org/2000/svg" xmlns:xlink="http://www.w3.org/1999/xlink">
	<desc>
			Created with Pixso.
	</desc>
	<defs>
		<clipPath id="clip2_180">
			<rect width="24.000000" height="24.000000" fill="white" fill-opacity="0"/>
		</clipPath>
	</defs>
	<rect width="24.000000" height="24.000000" fill="#FFFFFF" fill-opacity="0"/>
	<g clip-path="url(#clip2_180)">
		<path d="M22 5.80029C21.2484 6.12622 20.4534 6.3418 19.64 6.44019C20.4982 5.92749 21.1413 5.12109 21.45 4.17017C20.6436 4.65039 19.7607 4.98853 18.84 5.17017C18.2245 4.50269 17.405 4.05859 16.5098 3.90698C15.6146 3.75562 14.6945 3.90552 13.8938 4.3335C13.093 4.76123 12.4569 5.44263 12.0853 6.271C11.7136 7.09937 11.6273 8.02759 11.84 8.91016C10.2094 8.82764 8.61444 8.40308 7.15863 7.66406C5.70288 6.92505 4.41882 5.88794 3.39001 4.62012C3.02911 5.25049 2.83954 5.96411 2.84003 6.69019C2.83875 7.3645 3.00421 8.02881 3.32178 8.62378C3.63928 9.21875 4.099 9.72583 4.65997 10.1001C4.008 10.0825 3.36987 9.90747 2.79999 9.59009L2.79999 9.64014C2.80487 10.5852 3.13599 11.4993 3.7373 12.2283C4.33862 12.957 5.17328 13.4558 6.09998 13.6401C5.74323 13.7488 5.37286 13.8059 5 13.8103C4.74188 13.8071 4.48444 13.7837 4.22998 13.7402C4.4939 14.553 5.00464 15.2634 5.6911 15.7725C6.3775 16.2815 7.20557 16.5637 8.06 16.5803C6.61719 17.7156 4.83588 18.335 3 18.3403C2.66571 18.3413 2.33173 18.3213 2 18.2803C3.87445 19.4905 6.05884 20.1328 8.28998 20.1301C9.82971 20.1462 11.3571 19.8552 12.7831 19.2742C14.2091 18.6934 15.505 17.834 16.5952 16.7468C17.6854 15.6594 18.548 14.3657 19.1326 12.9412C19.7172 11.5166 20.012 9.98999 20 8.4502C20 8.28027 20 8.1001 20 7.92017C20.7847 7.33496 21.4615 6.61768 22 5.80029Z" fill="#FFFFFF" fill-opacity="1.000000" fill-rule="nonzero"/>
	</g>
</svg>
