<svg width="24.000000" height="24.000000" viewBox="0 0 24 24" fill="none" xmlns="http://www.w3.org/2000/svg" xmlns:xlink="http://www.w3.org/1999/xlink">
	<desc>
			Created with Pixso.
	</desc>
	<defs>
		<clipPath id="clip2_186">
			<rect width="24.000000" height="24.000000" fill="white" fill-opacity="0"/>
		</clipPath>
	</defs>
	<rect width="24.000000" height="24.000000" fill="#FFFFFF" fill-opacity="0"/>
	<g clip-path="url(#clip2_186)">
		<path d="M15.0729 2L8.9375 2C3.33331 2 2 3.33325 2 8.927L2 15.0625C2 20.6667 3.32294 22 8.92706 22L15.0625 22C20.6667 22 22 20.677 22 15.073L22 8.9375C22 3.33325 20.6771 2 15.0729 2ZM18.1458 16.2708L16.6875 16.2708C16.1354 16.2708 15.9688 15.823 14.9792 14.8333C14.1146 14 13.75 13.8958 13.5312 13.8958C13.2292 13.8958 13.1458 13.9792 13.1458 14.3958L13.1458 15.7083C13.1458 16.0625 13.0312 16.2708 12.1042 16.2708C11.2046 16.2104 10.3322 15.937 9.5589 15.4734C8.78558 15.0098 8.13348 14.3691 7.65625 13.6042C6.52338 12.1941 5.73511 10.5391 5.35419 8.77075C5.35419 8.552 5.4375 8.35425 5.85419 8.35425L7.3125 8.35425C7.6875 8.35425 7.82294 8.52075 7.96875 8.90625C8.67706 10.9895 9.88544 12.802 10.375 12.802C10.5625 12.802 10.6458 12.7188 10.6458 12.25L10.6458 10.1042C10.5833 9.125 10.0625 9.04175 10.0625 8.6875C10.0693 8.59399 10.1124 8.50708 10.1824 8.44482C10.2524 8.38257 10.3439 8.3501 10.4375 8.35425L12.7292 8.35425C13.0417 8.35425 13.1458 8.5105 13.1458 8.8855L13.1458 11.7812C13.1458 12.0938 13.2812 12.198 13.375 12.198C13.5625 12.198 13.7083 12.0938 14.0521 11.75C14.7908 10.8491 15.3943 9.8457 15.8438 8.77075C15.8896 8.6416 15.9766 8.53076 16.0913 8.45557C16.2061 8.38037 16.3423 8.34473 16.4792 8.35425L17.9375 8.35425C18.375 8.35425 18.4688 8.573 18.375 8.8855C17.8444 10.0737 17.1879 11.2017 16.4167 12.25C16.2604 12.4895 16.1979 12.6145 16.4167 12.8958C16.5625 13.1145 17.0729 13.5417 17.4167 13.948C17.9167 14.4465 18.3318 15.0237 18.6458 15.6562C18.7708 16.0625 18.5625 16.2708 18.1458 16.2708Z" fill="#FFFFFF" fill-opacity="1.000000" fill-rule="nonzero"/>
	</g>
</svg>
