<svg width="32.000000" height="48.000000" viewBox="0 0 32 48" fill="none" xmlns="http://www.w3.org/2000/svg" xmlns:xlink="http://www.w3.org/1999/xlink">
	<desc>
			Created with Pixso.
	</desc>
	<defs>
		<clipPath id="clip1_193">
			<rect width="32.000000" height="48.000000" fill="white" fill-opacity="0"/>
		</clipPath>
	</defs>
	<rect width="32.000000" height="48.000000" fill="#FFFFFF" fill-opacity="0"/>
	<g clip-path="url(#clip1_193)">
		<path d="M17.324 0L14.67 0C6.41699 0.617981 -0.00201416 7.06799 -0.00201416 14.817L-0.00201416 33.071C0 41.3 7.17603 48 16 48C24.824 48 32 41.3 32 33.069L32 14.811C32 7.06799 25.58 0.617004 17.324 0ZM29 32.868C29 39.553 23.167 44.987 16 44.987C8.83301 44.987 3 39.553 3 32.868L3 15.1C3 8.41699 8.83197 2.98199 16 2.98199C23.168 2.98199 29 8.41699 29 15.1L29 32.865L29 32.868ZM16 13C15.7394 12.9975 15.481 13.0464 15.2393 13.144C14.9977 13.2415 14.7776 13.3858 14.5919 13.5685C14.4061 13.7513 14.2582 13.9688 14.1566 14.2088C14.0551 14.4488 14.0018 14.7064 14 14.967L14 20.033C14.0322 20.5405 14.2564 21.0168 14.6272 21.3648C14.998 21.7128 15.4874 21.9066 15.996 21.9066C16.5045 21.9066 16.994 21.7128 17.3648 21.3648C17.7356 21.0168 17.9598 20.5405 17.992 20.033L17.992 14.967C17.988 14.4422 17.7761 13.9404 17.4026 13.5717C17.0292 13.2029 16.5248 12.9973 16 13Z" fill="#FFFFFF" fill-opacity="1.000000" fill-rule="evenodd"/>
	</g>
</svg>
