<svg width="20.000000" height="17.000000" viewBox="0 0 20 17" fill="none" xmlns="http://www.w3.org/2000/svg" xmlns:xlink="http://www.w3.org/1999/xlink">
	<desc>
			Created with Pixso.
	</desc>
	<defs>
		<clipPath id="clip1_196">
			<rect width="20.000000" height="17.000000" fill="white" fill-opacity="0"/>
		</clipPath>
	</defs>
	<rect width="20.000000" height="17.000000" fill="#FFFFFF" fill-opacity="0"/>
	<g clip-path="url(#clip1_196)">
		<path d="M1.5 0L18.5 0C18.8978 0 19.2794 0.158081 19.5607 0.439331C19.8419 0.720703 20 1.10217 20 1.5C20 1.89783 19.8419 2.2793 19.5607 2.56067C19.2794 2.84192 18.8978 3 18.5 3L1.5 3C1.10217 3 0.720581 2.84192 0.439331 2.56067C0.158081 2.2793 0 1.89783 0 1.5C0 1.10217 0.158081 0.720703 0.439331 0.439331C0.720581 0.158081 1.10217 0 1.5 0ZM1.5 7L18.5 7C18.8978 7 19.2794 7.15808 19.5607 7.43933C19.8419 7.7207 20 8.10217 20 8.5C20 8.89783 19.8419 9.2793 19.5607 9.56067C19.2794 9.84192 18.8978 10 18.5 10L1.5 10C1.10217 10 0.720581 9.84192 0.439331 9.56067C0.158081 9.2793 0 8.89783 0 8.5C0 8.10217 0.158081 7.7207 0.439331 7.43933C0.720581 7.15808 1.10217 7 1.5 7ZM1.5 14L18.5 14C18.8978 14 19.2794 14.1581 19.5607 14.4393C19.8419 14.7207 20 15.1022 20 15.5C20 15.8978 19.8419 16.2793 19.5607 16.5607C19.2794 16.8419 18.8978 17 18.5 17L1.5 17C1.10217 17 0.720581 16.8419 0.439331 16.5607C0.158081 16.2793 0 15.8978 0 15.5C0 15.1022 0.158081 14.7207 0.439331 14.4393C0.720581 14.1581 1.10217 14 1.5 14Z" fill="#000000" fill-opacity="1.000000" fill-rule="evenodd"/>
	</g>
</svg>
